<?xml version="1.0" encoding="utf-8"?>
<!-- Generator: Adobe Illustrator 16.0.0, SVG Export Plug-In . SVG Version: 6.00 Build 0)  -->
<!DOCTYPE svg PUBLIC "-//W3C//DTD SVG 1.1//EN" "http://www.w3.org/Graphics/SVG/1.1/DTD/svg11.dtd">
<svg version="1.1" id="Capa_1" xmlns="http://www.w3.org/2000/svg" xmlns:xlink="http://www.w3.org/1999/xlink" x="0px" y="0px"
	 width="841.89px" height="1190.55px" viewBox="0 0 841.89 1190.55" enable-background="new 0 0 841.89 1190.55"
	 xml:space="preserve">
<g>
	<g>
		<path fill="#1C1E3E" d="M277.604,594.191l-1.611,3.789h-1.629l6.161-13.987l6.002,13.987h-1.647l-1.576-3.789H277.604z
			 M280.49,587.462l-2.284,5.347h4.514L280.49,587.462z"/>
		<path fill="#1C1E3E" d="M303.933,591.269c0.035,1.806-0.16,3.294-1.381,4.71c-1.221,1.416-3.081,2.23-4.94,2.23
			c-3.753,0-6.869-3.116-6.869-6.869c0-3.824,3.116-6.941,6.958-6.941c2.337,0,4.231,1.045,5.648,2.886l-1.08,1.009
			c-1.115-1.575-2.62-2.514-4.586-2.514c-3.045,0-5.453,2.567-5.453,5.578c0,1.416,0.567,2.761,1.558,3.771
			c0.974,0.974,2.39,1.699,3.789,1.699c2.319,0,4.762-1.699,4.762-4.178h-3.966v-1.381H303.933z"/>
		<path fill="#1C1E3E" d="M309.582,584.63h6.923v1.381h-5.435v3.965h5.276v1.382h-5.276v5.239h5.435v1.382h-6.923V584.63z"/>
		<path fill="#1C1E3E" d="M322.668,584.063l10.41,10.907v-10.34h1.488v13.952l-10.411-10.889v10.287h-1.487V584.063z"/>
		<path fill="#1C1E3E" d="M351.068,587.551c-1.063-1.097-2.532-1.771-4.073-1.771c-2.974,0-5.382,2.585-5.382,5.524
			s2.426,5.523,5.418,5.523c1.505,0,2.974-0.707,4.037-1.77v1.841c-1.151,0.832-2.567,1.31-3.984,1.31
			c-3.771,0-6.958-3.063-6.958-6.851c0-3.825,3.134-6.959,6.958-6.959c1.487,0,2.797,0.426,3.984,1.311V587.551z"/>
		<path fill="#1C1E3E" d="M358.647,597.979h-1.487v-13.35h1.487V597.979z"/>
		<path fill="#1C1E3E" d="M366.899,594.191l-1.611,3.789h-1.629l6.161-13.987l6.002,13.987h-1.647l-1.576-3.789H366.899z
			 M369.784,587.462l-2.283,5.347h4.514L369.784,587.462z"/>
		<path fill="#1C1E3E" d="M389.812,584.63h2.514c2,0,3.629,0.266,5.206,1.611c1.522,1.31,2.213,3.098,2.213,5.081
			c0,1.948-0.708,3.666-2.178,4.975c-1.593,1.416-3.187,1.683-5.276,1.683h-2.479V584.63z M392.378,596.598
			c1.628,0,2.992-0.229,4.213-1.38c1.098-1.026,1.665-2.425,1.665-3.913c0-1.523-0.584-2.993-1.735-4.001
			c-1.221-1.081-2.567-1.292-4.143-1.292h-1.08v10.586H392.378z"/>
		<path fill="#1C1E3E" d="M405.357,584.63h6.923v1.381h-5.435v3.965h5.275v1.382h-5.275v5.239h5.435v1.382h-6.923V584.63z"/>
		<path fill="#1C1E3E" d="M427.35,584.63h2.514c2,0,3.629,0.266,5.205,1.611c1.523,1.31,2.213,3.098,2.213,5.081
			c0,1.948-0.708,3.666-2.178,4.975c-1.593,1.416-3.187,1.683-5.275,1.683h-2.479V584.63z M429.916,596.598
			c1.629,0,2.992-0.229,4.214-1.38c1.099-1.026,1.665-2.425,1.665-3.913c0-1.523-0.584-2.993-1.735-4.001
			c-1.222-1.081-2.567-1.292-4.144-1.292h-1.08v10.586H429.916z"/>
		<path fill="#1C1E3E" d="M444.418,597.979h-1.486v-13.35h1.486V597.979z"/>
		<path fill="#1C1E3E" d="M456.725,587.232c-0.531-0.92-1.17-1.452-2.303-1.452c-1.186,0-2.212,0.85-2.212,2.072
			c0,1.151,1.186,1.682,2.089,2.089l0.885,0.389c1.735,0.761,3.205,1.628,3.205,3.753c0,2.338-1.877,4.125-4.196,4.125
			c-2.143,0-3.735-1.381-4.16-3.452l1.452-0.407c0.193,1.363,1.238,2.478,2.672,2.478c1.436,0,2.746-1.098,2.746-2.603
			c0-1.558-1.223-2.089-2.463-2.655l-0.813-0.354c-1.56-0.708-2.904-1.505-2.904-3.417c0-2.072,1.753-3.4,3.736-3.4
			c1.487,0,2.743,0.762,3.452,2.072L456.725,587.232z"/>
		<path fill="#1C1E3E" d="M464.107,584.63h6.924v1.381h-5.437v3.965h5.276v1.382h-5.276v5.239h5.437v1.382h-6.924V584.63z"/>
		<path fill="#1C1E3E" d="M477.193,584.063l10.41,10.907v-10.34h1.487v13.952l-10.41-10.889v10.287h-1.487V584.063z
			 M480.044,582.293c0.407-0.708,0.921-1.398,1.806-1.398c0.531,0,1.009,0.194,1.434,0.407c0.443,0.194,0.815,0.407,1.134,0.407
			c0.495,0,0.778-0.459,0.991-0.85l0.832,0.673c-0.318,0.779-1.008,1.434-1.877,1.434c-0.424,0-0.885-0.195-1.327-0.408
			c-0.442-0.194-0.868-0.389-1.239-0.389c-0.496,0-0.709,0.425-0.885,0.814L480.044,582.293z"/>
		<path fill="#1C1E3E" d="M508.656,591.322c0,3.842-3.151,6.887-6.957,6.887c-3.808,0-6.959-3.045-6.959-6.887
			c0-3.824,3.151-6.923,6.959-6.923C505.505,584.399,508.656,587.498,508.656,591.322z M496.229,591.305
			c0,3.01,2.443,5.523,5.471,5.523s5.471-2.514,5.471-5.523c0-3.028-2.408-5.524-5.471-5.524
			C498.636,585.781,496.229,588.277,496.229,591.305z"/>
		<path fill="#1C1E3E" d="M527.214,594.633l4.32-10.694l4.319,10.694l3.506-10.003h1.611l-5.117,14.04l-4.319-10.747l-4.32,10.747
			l-5.117-14.04h1.612L527.214,594.633z"/>
		<path fill="#1C1E3E" d="M546.072,584.63h6.922v1.381h-5.435v3.965h5.276v1.382h-5.276v5.239h5.435v1.382h-6.922V584.63z"/>
		<path fill="#1C1E3E" d="M559.068,584.63h2.195c2.426,0,4.462,0.885,4.462,3.612c0,1.08-0.407,2-1.311,2.602
			c1.594,0.389,2.532,1.824,2.532,3.417c0,2.657-2.143,3.718-4.781,3.718h-3.098V584.63z M560.557,590.508h0.565
			c1.683,0,3.116-0.195,3.116-2.266c0-2.019-1.274-2.231-3.099-2.231h-0.583V590.508z M560.557,596.598h1.486
			c1.664,0,3.417-0.406,3.417-2.443c0-2.071-1.982-2.372-3.612-2.372h-1.291V596.598z"/>
	</g>
	<g>
		<g>
			<path fill="#1C1E3E" d="M433.215,468.826c-1.773-1.966-2.659-4.788-2.659-8.463v-2.595h6.745v3.113c0,2.94,1.23,4.41,3.695,4.41
				c1.211,0,2.13-0.356,2.756-1.07c0.627-0.713,0.941-1.87,0.941-3.469c0-1.902-0.434-3.577-1.297-5.026
				c-0.866-1.448-2.465-3.188-4.799-5.221c-2.941-2.594-4.994-4.938-6.162-7.036c-1.168-2.097-1.75-4.464-1.75-7.101
				c0-3.588,0.907-6.366,2.723-8.333c1.816-1.967,4.453-2.951,7.912-2.951c3.415,0,6,0.984,7.75,2.951
				c1.752,1.967,2.627,4.789,2.627,8.462v1.881h-6.744v-2.334c0-1.557-0.303-2.691-0.908-3.405c-0.606-0.713-1.492-1.07-2.659-1.07
				c-2.378,0-3.567,1.449-3.567,4.345c0,1.643,0.443,3.178,1.33,4.604c0.886,1.426,2.496,3.156,4.832,5.188
				c2.982,2.594,5.035,4.951,6.16,7.069c1.124,2.118,1.686,4.604,1.686,7.458c0,3.719-0.919,6.572-2.756,8.561
				c-1.838,1.989-4.508,2.983-8.009,2.983C437.603,471.777,434.986,470.793,433.215,468.826z"/>
			<path fill="#1C1E3E" d="M455.912,425.732h19.455v6.485h-12.322v11.998h9.793v6.485h-9.793v13.943h12.322v6.485h-19.455V425.732z"
				/>
			<path fill="#1C1E3E" d="M479.453,425.732h10.57c3.674,0,6.355,0.854,8.041,2.561c1.687,1.708,2.529,4.335,2.529,7.879v2.789
				c0,4.712-1.557,7.696-4.67,8.949v0.129c1.729,0.519,2.951,1.579,3.664,3.178c0.715,1.601,1.07,3.74,1.07,6.421v7.977
				c0,1.296,0.043,2.345,0.131,3.145c0.086,0.801,0.301,1.589,0.648,2.367h-7.264c-0.26-0.735-0.434-1.427-0.519-2.075
				c-0.087-0.648-0.13-1.816-0.13-3.502v-8.301c0-2.075-0.336-3.523-1.006-4.345c-0.67-0.82-1.827-1.232-3.469-1.232h-2.465v19.456
				h-7.133V425.732z M489.18,445.188c1.428,0,2.497-0.367,3.211-1.103c0.713-0.734,1.07-1.967,1.07-3.697v-3.502
				c0-1.643-0.293-2.831-0.877-3.566c-0.582-0.735-1.502-1.103-2.756-1.103h-3.242v12.97H489.18z"/>
			<path fill="#1C1E3E" d="M503.447,425.732h7.198l4.669,35.214h0.131l4.669-35.214h6.55l-6.874,45.396h-9.469L503.447,425.732z"/>
			<path fill="#1C1E3E" d="M530.101,425.732h7.134v45.396h-7.134V425.732z"/>
			<path fill="#1C1E3E" d="M430.102,475.644h6.874l3.178,34.89h0.13l3.372-34.89h7.783l3.372,34.89h0.129l3.178-34.89h6.161
				l-4.604,45.396h-8.885l-3.242-30.61h-0.13l-3.242,30.61h-9.469L430.102,475.644z"/>
			<path fill="#1C1E3E" d="M467.91,475.644h19.454v6.484h-12.321v11.998h9.792v6.484h-9.792v13.943h12.321v6.485H467.91V475.644z"/>
			<path fill="#1C1E3E" d="M491.449,475.644h10.766c3.674,0,6.355,0.854,8.042,2.562c1.685,1.708,2.528,4.334,2.528,7.879v1.816
				c0,2.335-0.379,4.238-1.135,5.707c-0.756,1.471-1.912,2.529-3.469,3.178v0.13c3.545,1.21,5.318,4.368,5.318,9.468v3.892
				c0,3.502-0.92,6.172-2.757,8.009c-1.838,1.837-4.53,2.756-8.073,2.756h-11.221V475.644z M501.372,494.126
				c1.427,0,2.497-0.367,3.21-1.103c0.714-0.735,1.07-1.967,1.07-3.696v-2.529c0-1.643-0.291-2.832-0.876-3.567
				c-0.583-0.734-1.502-1.103-2.755-1.103h-3.438v11.998H501.372z M502.67,514.554c1.252,0,2.182-0.334,2.787-1.005
				c0.605-0.669,0.908-1.826,0.908-3.469v-3.956c0-2.076-0.356-3.513-1.069-4.313c-0.714-0.799-1.893-1.2-3.535-1.2h-3.177v13.943
				H502.67z"/>
			<path fill="#1C1E3E" d="M431.787,525.554h10.896c3.544,0,6.204,0.952,7.977,2.854c1.772,1.903,2.659,4.691,2.659,8.366v22.957
				c0,3.675-0.887,6.464-2.659,8.366c-1.772,1.903-4.433,2.854-7.977,2.854h-10.896V525.554z M442.553,564.465
				c1.167,0,2.064-0.346,2.691-1.038c0.626-0.69,0.94-1.815,0.94-3.372v-23.605c0-1.556-0.314-2.68-0.94-3.373
				c-0.627-0.69-1.524-1.038-2.691-1.038h-3.631v32.426H442.553z"/>
			<path fill="#1C1E3E" d="M458.116,525.554h7.134v45.396h-7.134V525.554z"/>
			<path fill="#1C1E3E" d="M472.771,568.648c-1.815-1.967-2.723-4.788-2.723-8.463v-23.866c0-3.674,0.907-6.495,2.723-8.463
				c1.816-1.966,4.453-2.95,7.912-2.95s6.096,0.984,7.912,2.95c1.816,1.968,2.724,4.789,2.724,8.463v3.892h-6.744v-4.345
				c0-2.984-1.232-4.475-3.697-4.475c-2.464,0-3.696,1.491-3.696,4.475v24.837c0,2.941,1.232,4.41,3.696,4.41
				c2.465,0,3.697-1.469,3.697-4.41v-8.884h-3.567v-6.486h10.312v14.852c0,3.675-0.907,6.496-2.724,8.463
				c-1.816,1.967-4.453,2.951-7.912,2.951S474.588,570.615,472.771,568.648z"/>
			<path fill="#1C1E3E" d="M495.924,525.554h7.133v45.396h-7.133V525.554z"/>
			<path fill="#1C1E3E" d="M513.951,532.039h-7.458v-6.485h22.05v6.485h-7.458v38.911h-7.134V532.039z"/>
			<path fill="#1C1E3E" d="M534.51,525.554h9.663l7.393,45.396h-7.134l-1.297-9.014v0.13h-8.106l-1.298,8.884h-6.615L534.51,525.554
				z M542.291,555.905l-3.178-22.438h-0.129l-3.113,22.438H542.291z"/>
			<path fill="#1C1E3E" d="M555.002,525.554h7.133v38.911h11.738v6.485h-18.871V525.554z"/>
		</g>
		<g>
			<path fill="#E62F3A" d="M425.52,463.017c0,4.574-3.708,8.281-8.281,8.281H280.767c-4.574,0-8.281-3.707-8.281-8.281V433.8
				c0-4.575,3.707-8.282,8.281-8.282h136.472c4.573,0,8.281,3.707,8.281,8.282V463.017z"/>
			<circle fill="#1C1E3E" cx="403.869" cy="448.409" r="6.361"/>
		</g>
		<g>
			<path fill="#E62F3A" d="M425.52,512.792c0,4.575-3.708,8.282-8.281,8.282H280.767c-4.574,0-8.281-3.707-8.281-8.282v-29.217
				c0-4.574,3.707-8.281,8.281-8.281h136.472c4.573,0,8.281,3.707,8.281,8.281V512.792z"/>
			<circle fill="#1C1E3E" cx="403.869" cy="498.184" r="6.361"/>
		</g>
		<g>
			<path fill="#E62F3A" d="M425.52,562.568c0,4.575-3.708,8.281-8.281,8.281H280.767c-4.574,0-8.281-3.707-8.281-8.281v-29.216
				c0-4.575,3.707-8.282,8.281-8.282h136.472c4.573,0,8.281,3.707,8.281,8.282V562.568z"/>
			<circle fill="#1C1E3E" cx="403.869" cy="547.96" r="6.361"/>
		</g>
	</g>
</g>
</svg>
