<?xml version="1.0" encoding="utf-8"?>
<!-- Generator: Adobe Illustrator 16.0.0, SVG Export Plug-In . SVG Version: 6.00 Build 0)  -->
<!DOCTYPE svg PUBLIC "-//W3C//DTD SVG 1.1//EN" "http://www.w3.org/Graphics/SVG/1.1/DTD/svg11.dtd">
<svg version="1.1" id="Capa_1" xmlns="http://www.w3.org/2000/svg" xmlns:xlink="http://www.w3.org/1999/xlink" x="0px" y="0px"
	 width="400px" height="400px" viewBox="0 0 400 400" enable-background="new 0 0 400 400" xml:space="preserve">
<g>
	<g>
		<g>
			<path fill="#575756" d="M252.69,10.202l70.629,70.627v120.069c0,5.192-4.227,9.418-9.42,9.418H130.268L59.64,139.687V19.619
				c0-5.193,4.225-9.417,9.418-9.417H252.69 M256.915,0h-4.225H69.058C58.24,0,49.437,8.8,49.437,19.619v120.067v4.226l2.99,2.987
				l70.628,70.628l2.987,2.987h4.226h183.631c10.82,0,19.621-8.8,19.621-19.618V80.829v-4.225l-2.988-2.988L259.905,2.988L256.915,0
				L256.915,0z"/>
			<g>
				<path fill="#009872" d="M254.129,41.984V19.619c0-0.795-0.645-1.439-1.439-1.439H69.058c-0.795,0-1.44,0.644-1.44,1.439v120.067
					c0,0.794,0.646,1.438,1.44,1.438h22.364c0.795,0,1.438-0.644,1.438-1.438V43.423h159.83
					C253.485,43.423,254.129,42.779,254.129,41.984z"/>
				<path fill="#1EAE8C" d="M284.735,72.59V50.224c0-0.795-0.646-1.438-1.439-1.438H99.664c-0.796,0-1.439,0.644-1.439,1.438
					v120.068c0,0.794,0.644,1.439,1.439,1.439h22.364c0.794,0,1.439-0.645,1.439-1.439V74.029h159.828
					C284.088,74.029,284.735,73.384,284.735,72.59z"/>
				<path fill="#65BDA1" d="M313.899,79.391H130.268c-0.794,0-1.439,0.645-1.439,1.438v120.069c0,0.795,0.646,1.439,1.439,1.439
					h183.631c0.795,0,1.439-0.645,1.439-1.439V80.829C315.338,80.036,314.694,79.391,313.899,79.391z"/>
			</g>
		</g>
	</g>
	<g>
		<path fill="#575756" d="M28.875,393.567c-0.13-0.27-0.306-0.549-0.536-0.841c-0.228-0.291-0.501-0.601-0.822-0.921
			c-0.316-0.318-0.676-0.644-1.083-0.979l-1.595-1.452c-0.261-0.188-0.578-0.438-0.948-0.744c-0.369-0.307-0.653-0.571-0.843-0.799
			c-0.194-0.231-0.325-0.414-0.4-0.561c-0.074-0.139-0.135-0.283-0.172-0.437c-0.037-0.149-0.056-0.295-0.056-0.433
			c0-0.508,0.272-0.956,0.807-1.337c0.537-0.382,1.231-0.575,2.072-0.575c1.135,0,2.375,0.258,3.715,0.773
			c-0.127-1.154-0.212-2.179-0.257-3.075c-1.543-0.303-2.928-0.451-4.16-0.451c-1.37,0-2.509,0.2-3.408,0.597
			c-0.899,0.403-1.576,0.959-2.031,1.671c-0.452,0.709-0.676,1.472-0.676,2.281c0,0.44,0.06,0.855,0.179,1.239
			c0.119,0.388,0.317,0.777,0.593,1.173c0.276,0.393,0.673,0.833,1.192,1.325c0.227,0.225,0.642,0.602,1.246,1.125
			c1.266,1.085,2.144,1.863,2.636,2.337c0.39,0.347,0.661,0.679,0.826,0.997c0.108,0.234,0.164,0.496,0.164,0.791
			c0,0.378-0.116,0.721-0.34,1.026c-0.231,0.308-0.582,0.542-1.061,0.709c-0.481,0.172-0.993,0.251-1.545,0.251
			c-1.381,0-2.917-0.381-4.604-1.15c0.112,0.833,0.202,1.9,0.272,3.212c1.194,0.265,2.161,0.443,2.895,0.541
			c0.73,0.098,1.377,0.138,1.926,0.138c0.836,0,1.632-0.078,2.378-0.235c0.751-0.16,1.442-0.443,2.073-0.857
			c0.628-0.416,1.108-0.941,1.445-1.588c0.336-0.639,0.503-1.322,0.503-2.046c0-0.313-0.033-0.604-0.094-0.885
			C29.1,394.104,29.002,393.832,28.875,393.567z"/>
		<path fill="#575756" d="M47.471,382.073c-2.312,0-4.529-0.012-6.662-0.03v1.76l-0.165,5.212l-0.271,5.725L40,399.694l2.556-0.012
			l4.257-0.015c1.8,0,3.824,0.008,6.064,0.026c0.034-0.885,0.093-1.833,0.179-2.83l-1.875,0.089l-2.808,0.049
			c-1.481,0.019-2.431,0.025-2.841,0.025l-1.426-0.01l0.211-4.836c1.518-0.052,2.782-0.078,3.802-0.078
			c0.333,0,1.654,0.012,3.955,0.041c0.052-1.098,0.111-2.035,0.183-2.822c-1.968,0.053-3.368,0.082-4.193,0.082
			c-1.199,0-2.389-0.011-3.569-0.041l0.209-4.594c0.792-0.021,1.386-0.037,1.78-0.04c0.393-0.008,1.26-0.008,2.604-0.008
			c0.619,0,1.229,0.008,1.826,0.011c0.593,0.012,1.057,0.023,1.392,0.037l1.229,0.071l0.157-2.798l-3.737,0.015L47.471,382.073z"/>
		<path fill="#575756" d="M76.75,382.938c-0.615-0.403-1.313-0.664-2.101-0.775c-0.788-0.112-1.685-0.169-2.685-0.169
			c-0.8,0-1.562,0.011-2.281,0.037c-0.718,0.026-1.453,0.042-2.203,0.042c-0.699,0-1.564-0.012-2.598-0.03
			c0,2.525-0.065,5.457-0.191,8.795c-0.135,3.338-0.33,6.284-0.59,8.856c0.985-0.019,1.639-0.026,1.956-0.026l2.006,0.026l0.245-9.7
			l0.231-5.311c0.653,0,1.206-0.007,1.654-0.015c0.444-0.007,0.8-0.011,1.058-0.011c0.47,0,0.932,0.029,1.399,0.09
			c0.467,0.061,0.862,0.198,1.198,0.414c0.34,0.213,0.579,0.478,0.717,0.788c0.146,0.311,0.218,0.646,0.218,1.008
			c0,0.594-0.165,1.146-0.494,1.646c-0.325,0.509-0.796,0.878-1.411,1.121c-0.611,0.242-1.287,0.36-2.027,0.36
			c-0.474,0-1.003-0.051-1.584-0.155c0.278,0.586,0.494,1.027,0.65,1.321l1.562,3.141c0.352,0.717,0.653,1.336,0.903,1.863
			l1.431,3.438c1.048-0.019,1.78-0.026,2.194-0.026c0.333,0,1.031,0.008,2.087,0.026c-0.347-0.664-0.552-1.057-0.622-1.177
			l-1.305-2.289c-0.794-1.406-1.332-2.382-1.621-2.919l-0.873-1.711c0.636-0.171,1.143-0.316,1.523-0.437
			c0.381-0.123,0.717-0.268,1.017-0.437c0.297-0.165,0.597-0.396,0.896-0.684c0.303-0.291,0.563-0.627,0.784-1.008
			c0.22-0.385,0.388-0.791,0.497-1.229c0.111-0.437,0.168-0.893,0.168-1.377c0-0.766-0.149-1.441-0.445-2.018
			C77.814,383.833,77.36,383.346,76.75,382.938z"/>
		<path fill="#575756" d="M103.002,382.043c-0.258,0.632-0.448,1.087-0.571,1.366c-0.119,0.28-0.238,0.544-0.358,0.798l-4.069,8.505
			c-0.539,1.131-0.896,1.885-1.072,2.277l-0.698,1.576c-0.298-0.997-0.544-1.807-0.734-2.42l-3.142-9.477
			c-0.164-0.495-0.291-0.895-0.373-1.188l-0.402-1.438c-0.908,0.019-1.539,0.03-1.902,0.03c-0.585,0-1.32-0.012-2.205-0.03
			l2.304,6.416l2.505,7.136c0.501,1.431,0.788,2.255,0.854,2.472l0.493,1.628c1.24-0.019,2.032-0.026,2.363-0.026
			c0.381,0,1.132,0.008,2.252,0.026l0.75-1.616l7.069-13.965l1.112-2.07c-1.061,0.019-1.735,0.03-2.027,0.03
			C104.657,382.073,103.939,382.062,103.002,382.043z"/>
		<path fill="#575756" d="M116.253,382.043l0.016,1.385c0,1.646-0.063,4.027-0.197,7.145c-0.124,3.114-0.296,6.153-0.498,9.122
			c1.181-0.019,1.928-0.026,2.248-0.026l1.905,0.026c0.092-7.233,0.316-13.117,0.667-17.651c-1.197,0.019-1.859,0.03-1.979,0.03
			L116.253,382.043z"/>
		<path fill="#575756" d="M154.603,382.043l-0.825,1.892l-2.517,5.533l-3.472,7.396c-0.239-0.612-0.62-1.658-1.144-3.144
			c-0.518-1.487-0.873-2.54-1.063-3.16c0.497-1.146,1.157-2.575,1.972-4.29c0.813-1.713,1.501-3.122,2.053-4.228
			c-0.684,0.019-1.283,0.03-1.811,0.03c-0.459,0-1.06-0.012-1.814-0.03c-0.597,1.526-1.258,3.07-1.979,4.632
			c-0.492-1.526-0.945-3.067-1.356-4.632c-0.672,0.019-1.313,0.03-1.922,0.03c-0.554,0-1.195-0.012-1.927-0.03
			c0.456,1.184,0.99,2.626,1.599,4.344c0.604,1.715,1.108,3.174,1.504,4.381c-0.283,0.671-0.758,1.71-1.419,3.117
			c-0.656,1.407-1.153,2.434-1.479,3.068l-1.513-4.212l-3.625-10.698c-0.772,0.019-1.444,0.03-2.013,0.03
			c-0.515,0-1.188-0.012-2.016-0.03c2.277,5.842,4.473,11.722,6.589,17.651c0.886-0.019,1.685-0.026,2.387-0.026
			c0.673,0,1.471,0.008,2.397,0.026c0.728-1.74,1.504-3.446,2.322-5.123c0.613,1.677,1.173,3.383,1.685,5.123
			c0.895-0.019,1.687-0.026,2.377-0.026c0.653,0,1.446,0.008,2.368,0.026l1.139-2.408l5.074-10.418l2.432-4.825
			c-0.789,0.019-1.457,0.03-2.01,0.03C156.097,382.073,155.432,382.062,154.603,382.043z"/>
		<path fill="#575756" d="M174.553,382.073c-2.312,0-4.529-0.012-6.662-0.03v1.76l-0.164,5.212l-0.275,5.725l-0.369,4.955
			l2.556-0.012l4.255-0.015c1.799,0,3.822,0.008,6.066,0.026c0.034-0.885,0.093-1.833,0.18-2.83l-1.875,0.089l-2.808,0.049
			c-1.482,0.019-2.431,0.025-2.846,0.025l-1.422-0.01l0.212-4.836c1.513-0.052,2.783-0.078,3.798-0.078
			c0.336,0,1.658,0.012,3.958,0.041c0.048-1.098,0.108-2.035,0.179-2.822c-1.964,0.053-3.364,0.082-4.189,0.082
			c-1.201,0-2.389-0.011-3.569-0.041l0.209-4.594c0.792-0.021,1.386-0.037,1.778-0.04c0.392-0.008,1.262-0.008,2.604-0.008
			c0.62,0,1.229,0.008,1.823,0.011c0.598,0.012,1.061,0.023,1.396,0.037l1.228,0.071l0.158-2.798l-3.738,0.015L174.553,382.073z"/>
		<path fill="#575756" d="M205.34,392.687c-0.146-0.291-0.338-0.571-0.586-0.834c-0.246-0.261-0.508-0.481-0.783-0.648
			c-0.277-0.165-0.533-0.291-0.773-0.374c-0.242-0.082-0.566-0.163-0.975-0.25c0.453-0.156,0.811-0.303,1.076-0.44
			c0.27-0.138,0.549-0.328,0.84-0.574c0.293-0.247,0.549-0.546,0.768-0.893c0.221-0.349,0.391-0.74,0.506-1.178
			c0.119-0.437,0.176-0.895,0.176-1.376c0-0.389-0.045-0.771-0.135-1.147c-0.094-0.373-0.23-0.721-0.414-1.045
			c-0.188-0.323-0.408-0.604-0.67-0.839c-0.258-0.239-0.574-0.437-0.955-0.604c-0.377-0.164-0.814-0.283-1.297-0.366
			c-0.492-0.078-1.213-0.123-2.18-0.123c-0.689,0-1.564,0.011-2.621,0.037c-1.064,0.026-1.957,0.042-2.68,0.042
			c-0.713,0-1.613-0.012-2.701-0.03c0.008,0.623,0.012,1.094,0.012,1.412c0,1.054-0.045,2.98-0.143,5.792
			c-0.094,2.808-0.17,4.795-0.23,5.959c-0.061,1.161-0.174,2.663-0.336,4.488l2.336-0.012l3.131,0.012
			c2.535,0,4.189-0.071,4.973-0.202c0.781-0.13,1.48-0.403,2.113-0.803c0.627-0.396,1.125-0.944,1.479-1.632
			c0.359-0.69,0.537-1.448,0.537-2.28c0-0.385-0.041-0.759-0.123-1.113C205.602,393.305,205.485,392.981,205.34,392.687z
			 M195.645,384.502h3.098c0.654,0,1.152,0.04,1.49,0.127c0.34,0.078,0.627,0.212,0.869,0.399c0.244,0.183,0.418,0.414,0.535,0.702
			c0.115,0.287,0.174,0.586,0.174,0.902c0,0.329-0.051,0.65-0.16,0.968c-0.107,0.313-0.279,0.604-0.512,0.863
			c-0.227,0.265-0.514,0.455-0.846,0.581c-0.336,0.128-0.658,0.214-0.963,0.251c-0.303,0.044-0.9,0.067-1.785,0.067h-2.076
			L195.645,384.502z M201.917,395.194c-0.078,0.276-0.186,0.521-0.316,0.736c-0.135,0.213-0.287,0.393-0.461,0.53
			c-0.172,0.138-0.406,0.265-0.711,0.388c-0.305,0.12-0.617,0.206-0.949,0.25c-0.332,0.049-0.795,0.075-1.389,0.075h-2.939
			l0.195-5.291h3.258c0.74,0,1.297,0.053,1.656,0.153c0.361,0.097,0.68,0.258,0.951,0.479c0.273,0.22,0.475,0.481,0.615,0.783
			c0.139,0.303,0.205,0.65,0.205,1.05C202.032,394.639,201.993,394.923,201.917,395.194z"/>
		<path fill="#575756" d="M233.067,385.764c-0.301-0.608-0.689-1.161-1.164-1.666c-0.475-0.494-1.033-0.908-1.68-1.244
			c-0.65-0.333-1.404-0.557-2.271-0.677c-0.865-0.123-1.807-0.183-2.826-0.183c-0.75,0-1.639,0.011-2.666,0.037
			c-1.033,0.026-1.863,0.042-2.49,0.042c-0.848,0-1.746-0.012-2.703-0.03c0,1.045-0.006,1.684-0.012,1.932l-0.17,5.594l-0.258,5.626
			l-0.348,4.5c1.373-0.019,2.195-0.026,2.467-0.026l4.4,0.026c1.566,0,2.967-0.127,4.207-0.373c1.236-0.254,2.363-0.813,3.379-1.688
			c1.02-0.874,1.783-1.982,2.295-3.328c0.514-1.335,0.771-2.747,0.771-4.229c0-0.78-0.08-1.538-0.24-2.282
			C233.602,387.049,233.368,386.368,233.067,385.764z M229.809,392.298c-0.16,0.684-0.4,1.299-0.713,1.859
			c-0.307,0.553-0.707,1.041-1.195,1.464c-0.484,0.422-0.971,0.716-1.453,0.886c-0.484,0.167-1.061,0.29-1.725,0.368
			c-0.672,0.078-1.396,0.115-2.184,0.115c-0.688,0-1.391-0.019-2.092-0.048l0.529-12.21c1.26-0.03,2.375-0.049,3.35-0.049
			c1.502,0,2.611,0.184,3.332,0.545c0.717,0.375,1.295,0.968,1.734,1.802c0.441,0.832,0.662,1.892,0.662,3.188
			C230.055,390.923,229.971,391.618,229.809,392.298z"/>
		<path fill="#575756" d="M245.106,382.043l0.014,1.385c0,1.646-0.063,4.027-0.193,7.145c-0.127,3.114-0.295,6.153-0.5,9.122
			c1.18-0.019,1.93-0.026,2.248-0.026l1.904,0.026c0.096-7.233,0.313-13.117,0.672-17.651c-1.203,0.019-1.863,0.03-1.982,0.03
			L245.106,382.043z"/>
		<path fill="#575756" d="M270.301,389.609c0,0.612-0.037,1.494-0.115,2.651c0.889-0.027,1.623-0.041,2.203-0.041l1.021,0.014
			l-0.213,4.538c-0.672,0.197-1.32,0.339-1.941,0.421c-0.615,0.082-1.156,0.124-1.617,0.124c-1.246,0-2.355-0.243-3.318-0.729
			c-0.967-0.479-1.654-1.157-2.064-2.031c-0.408-0.877-0.611-1.87-0.611-2.979c0-1.006,0.178-1.973,0.535-2.905
			c0.357-0.934,0.879-1.719,1.563-2.356c0.688-0.635,1.5-1.098,2.445-1.4c0.939-0.303,1.945-0.451,3.006-0.451
			c1.646,0,3.486,0.339,5.521,1.019c-0.09-1.072-0.137-2.097-0.141-3.074c-2.174-0.453-4.098-0.672-5.77-0.672
			c-1.217,0-2.371,0.104-3.461,0.316c-1.086,0.21-2.117,0.598-3.088,1.176c-0.971,0.57-1.801,1.29-2.482,2.153
			c-0.688,0.858-1.203,1.808-1.551,2.841c-0.352,1.035-0.525,2.109-0.525,3.223c0,1.299,0.238,2.535,0.705,3.704
			c0.471,1.168,1.154,2.109,2.051,2.822c0.895,0.717,1.99,1.232,3.289,1.55c1.295,0.321,2.703,0.478,4.219,0.478
			c0.811,0,1.793-0.057,2.945-0.172c1.158-0.115,2.449-0.316,3.879-0.601c0.094-3.524,0.258-6.731,0.486-9.618
			c-0.951,0.015-2.137,0.026-3.559,0.026C272.627,389.636,271.493,389.624,270.301,389.609z"/>
		<path fill="#575756" d="M288.958,382.043l0.016,1.385c0,1.646-0.063,4.027-0.193,7.145c-0.127,3.114-0.295,6.153-0.506,9.122
			c1.186-0.019,1.936-0.026,2.256-0.026l1.9,0.026c0.094-7.233,0.318-13.117,0.67-17.651c-1.199,0.019-1.861,0.03-1.98,0.03
			L288.958,382.043z"/>
		<path fill="#575756" d="M310.872,382.073c-2.715,0-5.313-0.012-7.791-0.03c-0.012,0.65-0.049,1.591-0.117,2.836l2.984-0.09
			l0.795-0.02l0.84-0.011h0.906l-0.178,5.534l-0.283,5.626l-0.289,3.775c1.191-0.019,1.896-0.026,2.113-0.026l1.969,0.026
			c0-0.68,0.004-1.333,0.012-1.96l0.025-1.527l0.371-9.085l0.154-2.363h0.994c1.43,0,2.928,0.038,4.488,0.12
			c0-0.661,0.041-1.607,0.131-2.836l-2.484,0.015L310.872,382.073z"/>
		<path fill="#575756" d="M340.668,387.332l-1.848-5.289c-0.785,0.019-1.588,0.03-2.406,0.03c-0.463,0-1.258-0.012-2.377-0.03
			c-0.699,1.478-1.576,3.221-2.641,5.24l-3.4,6.526c-1.207,2.337-2.26,4.298-3.156,5.885c1.094-0.019,1.84-0.026,2.236-0.026
			l2.109,0.026c0.953-2.133,1.936-4.224,2.941-6.27h6.807c0.311,0.808,0.688,1.863,1.133,3.163c0.445,1.307,0.773,2.341,0.979,3.106
			c1.055-0.019,1.811-0.026,2.262-0.026l1.934,0.026l-0.557-1.424L340.668,387.332z M333.278,390.732l1.875-3.804l1.047-2.181
			l2.033,5.984H333.278z"/>
		<path fill="#575756" d="M361.438,396.979l-2.225-0.025c0.033-1.464,0.09-2.941,0.168-4.42l0.266-5.183
			c0.092-1.986,0.201-3.755,0.313-5.308c-0.871,0.019-1.504,0.03-1.904,0.03c-0.586,0-1.32-0.012-2.199-0.03
			c-0.025,2.805-0.115,5.797-0.271,8.981c-0.154,3.185-0.357,6.074-0.615,8.67l2.434-0.012l4.07-0.015
			c1.611,0,3.549,0.008,5.818,0.026c0.061-1.024,0.129-1.96,0.203-2.808c-0.635,0.037-1.283,0.06-1.941,0.075
			C364.901,396.972,363.526,396.979,361.438,396.979z"/>
		<path fill="#575756" d="M379.616,283.639c-1.744-6.104-4.275-11.436-7.592-15.995c-3.322-4.559-7.445-8.24-12.365-11.059
			c-4.918-2.808-10.225-4.669-15.902-5.567c-5.684-0.9-12.293-1.352-19.832-1.352c-6.578,0-77.43,0.563-84.229,0.508l-4.809,16.373
			l-10.291,32.413c-2.137,6.525-3.543,10.888-4.219,13.078c-0.676,2.196-1.318,4.365-1.939,6.501l-3.289,12.407l-7.365-45.242
			l-5.34-35.53c-7.203,0.115-13.699,0.168-19.494,0.168c-5.346,0-11.869-0.053-19.583-0.168l-6.904,30.128l-10.024,38.999
			l-2.778,11.817c-1.804-10.525-3.435-19.442-4.898-26.76l-7.094-34.012c-0.904-4.275-3.636-20.172-3.636-20.172
			s-56.26-2.253-61.597-2.393c-9.151-0.239-18.514,1.327-26.723,5.599c-3.997,2.08-7.203,4.556-9.623,7.427
			c-2.419,2.867-4.233,5.948-5.442,9.241c-1.211,3.296-1.815,6.653-1.815,10.084c0,2.872,0.38,5.587,1.143,8.147
			c0.762,2.561,1.972,5.078,3.637,7.554c1.661,2.476,3.986,5.148,6.978,8.016c1.468,1.412,4.06,3.689,7.782,6.837l15.897,13.841
			c1.464,1.297,2.596,2.495,3.383,3.592c0.792,1.095,1.326,2.081,1.609,2.954c0.283,0.874,0.422,1.784,0.422,2.74
			c0,2.816-1.452,4.94-4.354,6.374c-2.904,1.434-6.808,2.15-11.713,2.15c-3.718,0-8.046-0.549-12.979-1.646
			c-4.936-1.095-10.555-3.051-16.869-5.862c0.956,7.199,1.8,16.795,2.532,28.78c13.897,2.643,25.403,3.965,34.522,3.965
			c5.906,0,11.519-0.59,16.835-1.77c5.317-1.184,10.197-3.248,14.644-6.206c4.447-2.953,7.879-6.721,10.299-11.31
			c2.419-4.584,3.629-9.408,3.629-14.476c0-1.969-0.199-3.809-0.594-5.525c-0.393-1.718-1.001-3.42-1.814-5.111
			c-0.814-1.685-1.982-3.541-3.5-5.567c-1.519-2.024-3.321-4.081-5.401-6.161s-4.025-3.853-5.825-5.316l-6.075-4.809
			c-4.334-3.381-7.516-5.923-9.539-7.64c-2.027-1.718-3.66-3.294-4.892-4.728c-1.243-1.437-2.083-2.688-2.536-3.756
			c-0.45-1.071-0.675-2.165-0.675-3.293c0-2.416,1.448-4.443,4.347-6.074c2.896-1.633,6.542-2.451,10.932-2.451
			c3.092,0,6.781,0.408,11.056,1.225c4.275,0.818,14.177,4.347,14.177,4.347l12.43,55.541c1.412,6.578,2.454,11.701,3.129,15.356
			l2.872,15.527c8.161-0.107,15.226-0.167,21.189-0.167c5.63,0,12.69,0.06,21.188,0.167l13.598-49.289
			c0.789-2.983,1.551-5.937,2.283-8.86l2.955-13.083c0.561,5.403,0.998,9.384,1.304,11.945c0.31,2.562,0.66,5.049,1.053,7.471
			l7.416,40.257l1.938,11.56c8.045-0.107,15.391-0.167,22.033-0.167c6.301,0,13.672,0.06,22.115,0.167l5.227-17.129l26.94-80.736
			c-0.114,5.763-0.341,13.253-0.677,22.496c-0.682,18.232-1.359,33.085-2.039,44.563c-0.451,7.715-1.303,17.979-2.547,30.807
			c7.203-0.167,12.408-0.249,15.615-0.249l34.098,0.249c7.705,0,14.602-0.335,20.676-1.012c5.459-0.619,9.764-1.433,12.916-2.444
			c3.148-1.016,6.273-2.419,9.369-4.224c4.166-2.415,7.861-5.331,11.1-8.733c3.234-3.405,6.059-7.471,8.479-12.198
			c2.42-4.727,4.311-10.024,5.656-15.909c1.352-5.877,2.029-12,2.029-18.355C382.233,296.032,381.358,289.744,379.616,283.639z
			 M343.237,319.596c-1.627,5.205-4.145,9.465-7.549,12.784c-3.402,3.32-7.354,5.488-11.848,6.501
			c-4.504,1.012-9.619,1.52-15.354,1.52c-3.375,0-6.609-0.146-9.701-0.426l2.842-65.072c5.516-0.34,10.297-0.508,14.35-0.508
			c6.918,0,12.393,0.903,16.412,2.703c4.025,1.801,7.244,4.992,9.668,9.577c2.42,4.589,3.629,10.227,3.629,16.922
			C345.686,309.059,344.868,314.391,343.237,319.596z"/>
	</g>
</g>
</svg>
