<?xml version="1.0" encoding="utf-8"?>
<!-- Generator: Adobe Illustrator 16.0.0, SVG Export Plug-In . SVG Version: 6.00 Build 0)  -->
<!DOCTYPE svg PUBLIC "-//W3C//DTD SVG 1.1//EN" "http://www.w3.org/Graphics/SVG/1.1/DTD/svg11.dtd">
<svg version="1.1" id="Capa_1" xmlns="http://www.w3.org/2000/svg" xmlns:xlink="http://www.w3.org/1999/xlink" x="0px" y="0px"
	 width="330.152px" height="100px" viewBox="0 0 330.152 100" enable-background="new 0 0 330.152 100" xml:space="preserve">
<g>
	<g>
		<path fill="#575756" d="M92.172,4.627l32.027,32.028v54.448c0,2.355-1.916,4.27-4.27,4.27H36.654L4.627,63.347V8.897
			c0-2.354,1.914-4.271,4.27-4.271H92.172 M94.088,0h-1.916H8.896C3.992,0,0,3.992,0,8.897v54.449v1.915l1.355,1.356l32.027,32.026
			L34.738,100h1.916h83.275c4.904,0,8.896-3.99,8.896-8.896V36.655v-1.916l-1.355-1.355L95.443,1.356L94.088,0L94.088,0z"/>
		<g>
			<path fill="#009872" d="M92.824,19.042V8.897c0-0.359-0.293-0.65-0.652-0.65H8.896c-0.361,0-0.654,0.291-0.654,0.65v54.449
				c0,0.36,0.293,0.652,0.654,0.652h10.143c0.361,0,0.652-0.292,0.652-0.652V19.692h72.48C92.531,19.692,92.824,19.4,92.824,19.042z
				"/>
			<path fill="#1EAE8C" d="M106.703,32.921V22.776c0-0.359-0.293-0.65-0.652-0.65H22.775c-0.361,0-0.654,0.291-0.654,0.65v54.448
				c0,0.361,0.293,0.652,0.654,0.652h10.143c0.361,0,0.652-0.291,0.652-0.652V33.571h72.48
				C106.41,33.571,106.703,33.279,106.703,32.921z"/>
			<path fill="#65BDA1" d="M119.93,36.005H36.654c-0.361,0-0.652,0.291-0.652,0.65v54.448c0,0.361,0.291,0.652,0.652,0.652h83.275
				c0.359,0,0.652-0.291,0.652-0.652V36.655C120.582,36.296,120.289,36.005,119.93,36.005z"/>
		</g>
	</g>
	<g>
		<g>
			<g>
				<path fill="#575756" d="M139.645,99.643c-0.037-0.686-0.084-1.244-0.143-1.678c0.883,0.4,1.686,0.602,2.408,0.602
					c0.289,0,0.557-0.043,0.809-0.131c0.25-0.09,0.434-0.211,0.555-0.373c0.117-0.158,0.178-0.338,0.178-0.537
					c0-0.152-0.029-0.291-0.086-0.412c-0.086-0.166-0.229-0.34-0.432-0.521c-0.258-0.248-0.717-0.656-1.379-1.223
					c-0.316-0.275-0.533-0.473-0.652-0.59c-0.271-0.258-0.479-0.488-0.623-0.693s-0.248-0.408-0.311-0.613
					c-0.063-0.199-0.094-0.418-0.094-0.646c0-0.426,0.117-0.822,0.354-1.195c0.238-0.371,0.592-0.662,1.063-0.873
					c0.471-0.207,1.066-0.313,1.783-0.313c0.645,0,1.369,0.078,2.176,0.236c0.023,0.469,0.068,1.004,0.135,1.609
					c-0.701-0.271-1.35-0.406-1.943-0.406c-0.439,0-0.803,0.102-1.084,0.301c-0.279,0.201-0.422,0.434-0.422,0.701
					c0,0.072,0.01,0.146,0.029,0.227c0.02,0.078,0.051,0.156,0.09,0.229c0.039,0.076,0.107,0.17,0.209,0.293
					c0.1,0.117,0.248,0.258,0.441,0.416c0.193,0.162,0.359,0.291,0.496,0.391l0.834,0.758c0.213,0.176,0.4,0.348,0.566,0.514
					c0.168,0.168,0.311,0.328,0.43,0.48c0.121,0.154,0.213,0.299,0.281,0.439c0.066,0.141,0.117,0.283,0.152,0.432
					c0.031,0.145,0.049,0.299,0.049,0.461c0,0.381-0.088,0.736-0.264,1.072s-0.428,0.613-0.756,0.828
					c-0.33,0.217-0.691,0.367-1.084,0.451c-0.391,0.082-0.807,0.123-1.244,0.123c-0.287,0-0.625-0.023-1.008-0.072
					C140.775,99.877,140.27,99.783,139.645,99.643z"/>
				<path fill="#575756" d="M151.131,99.838l0.195-2.59l0.143-2.996l0.086-2.725v-0.922c1.115,0.01,2.275,0.016,3.484,0.016
					l1.299-0.008l1.955-0.008l-0.082,1.463l-0.643-0.035c-0.176-0.008-0.418-0.016-0.729-0.02c-0.313-0.004-0.631-0.008-0.955-0.008
					c-0.703,0-1.156,0-1.361,0.004c-0.207,0.004-0.518,0.01-0.932,0.023l-0.109,2.402c0.617,0.014,1.24,0.021,1.867,0.021
					c0.432,0,1.164-0.016,2.193-0.043c-0.037,0.41-0.068,0.902-0.096,1.477c-1.203-0.016-1.895-0.021-2.068-0.021
					c-0.533,0-1.195,0.012-1.988,0.041l-0.111,2.527l0.746,0.008c0.215,0,0.711-0.004,1.486-0.014l1.469-0.027l0.98-0.047
					c-0.045,0.523-0.076,1.018-0.094,1.48c-1.172-0.01-2.23-0.012-3.172-0.012l-2.227,0.006L151.131,99.838z"/>
				<path fill="#575756" d="M163.738,99.838c0.137-1.344,0.238-2.887,0.309-4.633c0.066-1.746,0.1-3.277,0.1-4.6
					c0.541,0.01,0.994,0.016,1.359,0.016c0.393,0,0.777-0.008,1.152-0.021c0.377-0.014,0.775-0.02,1.193-0.02
					c0.523,0,0.992,0.029,1.404,0.088s0.777,0.195,1.1,0.406c0.318,0.213,0.557,0.469,0.713,0.771
					c0.154,0.301,0.232,0.652,0.232,1.053c0,0.254-0.029,0.494-0.088,0.723c-0.057,0.227-0.145,0.441-0.26,0.641
					c-0.115,0.201-0.252,0.377-0.41,0.527c-0.156,0.152-0.313,0.271-0.469,0.359s-0.332,0.162-0.531,0.227
					c-0.199,0.063-0.465,0.141-0.797,0.23l0.457,0.893c0.15,0.283,0.432,0.793,0.848,1.529l0.682,1.197
					c0.037,0.063,0.145,0.268,0.326,0.613c-0.553-0.01-0.918-0.012-1.092-0.012c-0.217,0-0.6,0.002-1.148,0.012l-0.748-1.797
					c-0.131-0.277-0.289-0.602-0.473-0.977l-0.816-1.641c-0.082-0.156-0.195-0.385-0.34-0.691c0.303,0.055,0.58,0.08,0.828,0.08
					c0.387,0,0.74-0.063,1.061-0.189c0.322-0.125,0.568-0.32,0.738-0.584c0.172-0.264,0.258-0.551,0.258-0.861
					c0-0.189-0.037-0.365-0.113-0.529c-0.072-0.162-0.197-0.301-0.375-0.412c-0.176-0.111-0.383-0.184-0.627-0.217
					c-0.244-0.031-0.486-0.045-0.732-0.045c-0.135,0-0.32,0-0.553,0.006c-0.234,0.004-0.523,0.006-0.865,0.006l-0.121,2.779
					l-0.129,5.072l-1.049-0.012C164.596,99.826,164.254,99.828,163.738,99.838z"/>
				<path fill="#575756" d="M179.186,99.838l-0.258-0.852c-0.035-0.113-0.186-0.543-0.447-1.291l-1.311-3.734l-1.205-3.355
					c0.463,0.01,0.848,0.016,1.154,0.016c0.189,0,0.52-0.006,0.994-0.016l0.211,0.752c0.043,0.152,0.109,0.361,0.195,0.623
					l1.643,4.957c0.1,0.32,0.229,0.742,0.385,1.266l0.365-0.826c0.092-0.203,0.279-0.6,0.561-1.191l2.129-4.449
					c0.063-0.131,0.125-0.27,0.188-0.416c0.064-0.146,0.164-0.385,0.299-0.715c0.49,0.01,0.865,0.016,1.123,0.016
					c0.152,0,0.506-0.006,1.061-0.016l-0.582,1.084l-3.697,7.305l-0.393,0.844c-0.586-0.01-0.979-0.012-1.178-0.012
					C180.248,99.826,179.834,99.828,179.186,99.838z"/>
				<path fill="#575756" d="M190.664,99.838c0.105-1.551,0.195-3.141,0.26-4.77c0.07-1.631,0.104-2.877,0.104-3.738l-0.008-0.725
					l1.131,0.016c0.063,0,0.408-0.006,1.035-0.016c-0.184,2.373-0.301,5.451-0.35,9.232l-0.996-0.012
					C191.672,99.826,191.281,99.828,190.664,99.838z"/>
				<path fill="#575756" d="M201.572,99.838c-1.107-3.1-2.256-6.178-3.447-9.232c0.434,0.01,0.785,0.016,1.055,0.016
					c0.297,0,0.648-0.006,1.053-0.016l1.896,5.596l0.791,2.203c0.17-0.332,0.43-0.867,0.773-1.604
					c0.346-0.736,0.594-1.281,0.742-1.631c-0.207-0.631-0.471-1.396-0.787-2.293c-0.318-0.896-0.598-1.652-0.836-2.271
					c0.383,0.01,0.719,0.016,1.008,0.016c0.318,0,0.654-0.006,1.006-0.016c0.215,0.818,0.451,1.625,0.709,2.422
					c0.377-0.814,0.723-1.623,1.035-2.422c0.395,0.01,0.709,0.016,0.949,0.016c0.275,0,0.59-0.006,0.947-0.016
					c-0.289,0.578-0.648,1.316-1.074,2.211c-0.426,0.898-0.771,1.646-1.031,2.244c0.1,0.326,0.285,0.877,0.557,1.652
					c0.273,0.777,0.473,1.326,0.598,1.646l1.816-3.871l1.316-2.895l0.432-0.988c0.434,0.01,0.781,0.016,1.043,0.016
					c0.289,0,0.639-0.006,1.051-0.016l-1.271,2.523l-2.654,5.451l-0.596,1.258c-0.482-0.01-0.896-0.012-1.238-0.012
					c-0.361,0-0.775,0.002-1.244,0.012c-0.268-0.908-0.561-1.801-0.881-2.68c-0.428,0.879-0.834,1.771-1.215,2.68
					c-0.484-0.01-0.902-0.012-1.254-0.012C202.453,99.826,202.035,99.828,201.572,99.838z"/>
				<path fill="#575756" d="M217.607,99.838l0.193-2.59l0.145-2.996l0.086-2.725v-0.922c1.115,0.01,2.275,0.016,3.484,0.016
					l1.299-0.008l1.955-0.008l-0.082,1.463l-0.643-0.035c-0.176-0.008-0.418-0.016-0.73-0.02c-0.311-0.004-0.629-0.008-0.953-0.008
					c-0.703,0-1.158,0-1.363,0.004s-0.516,0.01-0.93,0.023l-0.109,2.402c0.617,0.014,1.238,0.021,1.867,0.021
					c0.432,0,1.164-0.016,2.191-0.043c-0.037,0.41-0.068,0.902-0.094,1.477c-1.203-0.016-1.895-0.021-2.07-0.021
					c-0.531,0-1.195,0.012-1.986,0.041l-0.111,2.527l0.744,0.008c0.217,0,0.713-0.004,1.488-0.014l1.469-0.027l0.98-0.047
					c-0.045,0.523-0.076,1.018-0.094,1.48c-1.174-0.01-2.232-0.012-3.174-0.012l-2.225,0.006L217.607,99.838z"/>
				<path fill="#575756" d="M230.244,99.838c0.084-0.955,0.145-1.738,0.176-2.348c0.031-0.607,0.072-1.646,0.121-3.117
					c0.051-1.469,0.074-2.479,0.074-3.029c0-0.166-0.002-0.412-0.006-0.738c0.568,0.01,1.039,0.016,1.412,0.016
					c0.379,0,0.846-0.008,1.402-0.021c0.553-0.014,1.01-0.02,1.371-0.02c0.506,0,0.883,0.023,1.141,0.064
					c0.252,0.043,0.48,0.105,0.678,0.191c0.199,0.088,0.365,0.191,0.5,0.316c0.137,0.123,0.252,0.27,0.35,0.438
					c0.096,0.17,0.168,0.354,0.217,0.549c0.047,0.197,0.07,0.396,0.07,0.598c0,0.254-0.029,0.494-0.092,0.723
					c-0.061,0.229-0.148,0.432-0.264,0.613c-0.115,0.184-0.248,0.34-0.402,0.467c-0.152,0.129-0.299,0.229-0.439,0.303
					c-0.139,0.072-0.326,0.146-0.563,0.229c0.213,0.045,0.383,0.09,0.51,0.133c0.125,0.043,0.26,0.107,0.404,0.195
					c0.145,0.086,0.281,0.201,0.41,0.338s0.23,0.283,0.307,0.436c0.076,0.154,0.137,0.324,0.18,0.512
					c0.043,0.186,0.064,0.381,0.064,0.584c0,0.434-0.094,0.83-0.281,1.191c-0.186,0.361-0.445,0.646-0.773,0.855
					c-0.33,0.209-0.697,0.35-1.105,0.42c-0.41,0.068-1.275,0.104-2.602,0.104l-1.637-0.006L230.244,99.838z M232.291,98.52h1.537
					c0.311,0,0.553-0.012,0.727-0.037s0.338-0.068,0.496-0.131c0.16-0.064,0.283-0.133,0.373-0.205s0.17-0.166,0.24-0.277
					c0.068-0.111,0.125-0.24,0.166-0.383c0.039-0.143,0.061-0.291,0.061-0.443c0-0.209-0.035-0.393-0.107-0.551
					c-0.074-0.156-0.18-0.293-0.322-0.41c-0.143-0.115-0.309-0.199-0.498-0.25c-0.188-0.053-0.479-0.078-0.865-0.078h-1.705
					L232.291,98.52z M232.457,94.436h1.086c0.463,0,0.775-0.012,0.934-0.035c0.16-0.021,0.328-0.066,0.504-0.131
					c0.174-0.066,0.324-0.166,0.443-0.305c0.121-0.137,0.211-0.287,0.268-0.453s0.084-0.332,0.084-0.504
					c0-0.166-0.031-0.324-0.092-0.473c-0.061-0.15-0.152-0.271-0.279-0.369s-0.277-0.166-0.455-0.209
					c-0.178-0.045-0.438-0.066-0.779-0.066h-1.621L232.457,94.436z"/>
				<path fill="#575756" d="M243.447,99.838l0.182-2.354l0.135-2.943l0.09-2.926c0.002-0.129,0.006-0.463,0.006-1.01
					c0.5,0.01,0.971,0.016,1.414,0.016c0.328,0,0.762-0.008,1.303-0.021c0.537-0.014,1.002-0.02,1.395-0.02
					c0.533,0,1.025,0.031,1.479,0.096c0.453,0.063,0.848,0.18,1.188,0.354c0.338,0.176,0.631,0.393,0.879,0.652
					c0.248,0.262,0.451,0.553,0.609,0.871c0.156,0.314,0.279,0.67,0.361,1.063c0.084,0.387,0.125,0.785,0.125,1.193
					c0,0.773-0.135,1.512-0.402,2.213s-0.668,1.281-1.201,1.738c-0.531,0.457-1.121,0.752-1.768,0.883
					c-0.648,0.131-1.381,0.195-2.201,0.195l-2.301-0.012C244.596,99.826,244.166,99.828,243.447,99.838z M245.523,98.398
					c0.367,0.016,0.734,0.027,1.094,0.027c0.412,0,0.791-0.021,1.143-0.063c0.348-0.041,0.648-0.104,0.902-0.191
					c0.252-0.09,0.506-0.244,0.76-0.463c0.256-0.221,0.465-0.479,0.625-0.768c0.164-0.293,0.289-0.615,0.373-0.971
					c0.086-0.357,0.129-0.721,0.129-1.088c0-0.678-0.115-1.234-0.346-1.67c-0.23-0.434-0.533-0.746-0.908-0.939
					c-0.377-0.191-0.957-0.287-1.742-0.287c-0.51,0-1.094,0.01-1.752,0.027L245.523,98.398z"/>
				<path fill="#575756" d="M258.066,99.838c0.107-1.551,0.195-3.141,0.262-4.77c0.068-1.631,0.102-2.877,0.102-3.738l-0.008-0.725
					l1.131,0.016c0.063,0,0.408-0.006,1.037-0.016c-0.188,2.373-0.301,5.451-0.352,9.232l-0.996-0.012
					C259.076,99.826,258.684,99.828,258.066,99.838z"/>
				<path fill="#575756" d="M271.602,94.563c0.623,0.008,1.217,0.014,1.785,0.014c0.744,0,1.363-0.006,1.861-0.014
					c-0.119,1.512-0.205,3.188-0.254,5.033c-0.748,0.148-1.424,0.252-2.029,0.314c-0.604,0.061-1.117,0.09-1.541,0.09
					c-0.793,0-1.529-0.082-2.207-0.25c-0.68-0.166-1.252-0.438-1.721-0.813c-0.469-0.373-0.826-0.865-1.072-1.477
					c-0.244-0.611-0.369-1.258-0.369-1.936c0-0.582,0.092-1.145,0.275-1.686c0.182-0.541,0.451-1.037,0.811-1.488
					c0.357-0.451,0.791-0.826,1.299-1.125c0.508-0.303,1.047-0.506,1.615-0.615c0.57-0.111,1.174-0.166,1.811-0.166
					c0.875,0,1.881,0.115,3.018,0.352c0.002,0.512,0.027,1.049,0.074,1.607c-1.064-0.355-2.027-0.533-2.889-0.533
					c-0.555,0-1.08,0.08-1.572,0.238c-0.494,0.156-0.92,0.4-1.279,0.732c-0.357,0.332-0.631,0.742-0.816,1.23
					c-0.188,0.488-0.281,0.996-0.281,1.52c0,0.58,0.107,1.1,0.32,1.559c0.215,0.457,0.574,0.813,1.08,1.064
					c0.504,0.252,1.084,0.379,1.736,0.379c0.24,0,0.523-0.021,0.846-0.064c0.324-0.041,0.664-0.115,1.016-0.219l0.111-2.375
					l-0.535-0.006c-0.303,0-0.688,0.006-1.152,0.021C271.582,95.346,271.602,94.883,271.602,94.563z"/>
				<path fill="#575756" d="M281.004,99.838c0.109-1.551,0.197-3.141,0.264-4.77c0.068-1.631,0.102-2.877,0.102-3.738l-0.008-0.725
					l1.131,0.016c0.063,0,0.408-0.006,1.035-0.016c-0.184,2.373-0.301,5.451-0.35,9.232l-0.994-0.012
					C282.016,99.826,281.623,99.828,281.004,99.838z"/>
				<path fill="#575756" d="M291.186,99.838l0.15-1.973l0.148-2.943l0.094-2.896h-0.475l-0.439,0.008l-0.416,0.008l-1.561,0.047
					c0.035-0.65,0.055-1.143,0.061-1.482c1.297,0.01,2.656,0.016,4.076,0.016l2.428-0.008l1.299-0.008
					c-0.047,0.643-0.068,1.139-0.068,1.482c-0.816-0.041-1.6-0.063-2.348-0.063h-0.52l-0.082,1.236l-0.193,4.754l-0.014,0.797
					c-0.004,0.33-0.006,0.672-0.006,1.025l-1.029-0.012C292.178,99.826,291.809,99.828,291.186,99.838z"/>
				<path fill="#575756" d="M300.131,99.838c0.469-0.83,1.02-1.854,1.65-3.076l1.779-3.416c0.557-1.055,1.016-1.967,1.381-2.74
					c0.586,0.01,1.002,0.016,1.244,0.016c0.428,0,0.848-0.006,1.258-0.016l0.967,2.768l2.102,5.723l0.291,0.742l-1.012-0.012
					c-0.236,0-0.631,0.002-1.184,0.012c-0.107-0.4-0.279-0.941-0.512-1.623s-0.43-1.234-0.592-1.656h-3.561
					c-0.527,1.072-1.041,2.166-1.539,3.279l-1.104-0.012C301.094,99.826,300.703,99.828,300.131,99.838z M304.545,95.152h2.592
					l-1.064-3.131l-0.547,1.139L304.545,95.152z"/>
				<path fill="#575756" d="M315.891,99.838c0.135-1.357,0.242-2.867,0.322-4.533c0.082-1.668,0.129-3.232,0.143-4.699
					c0.459,0.01,0.844,0.016,1.15,0.016c0.209,0,0.541-0.006,0.996-0.016c-0.059,0.813-0.115,1.736-0.164,2.775l-0.139,2.711
					c-0.041,0.775-0.07,1.547-0.088,2.313l1.164,0.014c1.092,0,1.811-0.004,2.152-0.01c0.344-0.006,0.684-0.02,1.016-0.037
					c-0.039,0.441-0.074,0.932-0.105,1.467c-1.188-0.01-2.201-0.012-3.045-0.012l-2.129,0.006L315.891,99.838z"/>
			</g>
		</g>
		<g>
			<g>
				<path fill="#575756" d="M140.826,80.963c-0.383-6.27-0.824-11.288-1.324-15.055c3.303,1.472,6.242,2.494,8.824,3.067
					c2.58,0.574,4.844,0.86,6.789,0.86c2.566,0,4.607-0.375,6.127-1.125c1.518-0.75,2.277-1.861,2.277-3.334
					c0-0.5-0.072-0.977-0.221-1.434s-0.428-0.972-0.842-1.545c-0.412-0.574-1.004-1.2-1.77-1.878l-8.316-7.24
					c-1.947-1.647-3.303-2.839-4.07-3.576c-1.564-1.501-2.781-2.898-3.65-4.193c-0.871-1.296-1.504-2.612-1.902-3.952
					c-0.398-1.339-0.598-2.759-0.598-4.262c0-1.794,0.316-3.551,0.949-5.274c0.633-1.723,1.582-3.334,2.848-4.835
					s2.943-2.796,5.033-3.885c2.09-1.088,4.326-1.833,6.711-2.229c2.385-0.397,4.842-0.597,7.373-0.597
					c4.975,0,10.391,0.574,16.248,1.724c0.088,2.03,0.189,3.891,0.309,5.584c0.117,1.693,0.398,4.658,0.838,8.896
					c-2.707-1.089-5.18-1.847-7.416-2.274c-2.236-0.427-4.166-0.641-5.783-0.641c-2.297,0-4.203,0.428-5.719,1.282
					c-1.516,0.854-2.273,1.914-2.273,3.178c0,0.589,0.117,1.162,0.354,1.722c0.236,0.559,0.676,1.213,1.326,1.965
					c0.645,0.751,1.498,1.574,2.559,2.473c1.059,0.898,2.723,2.229,4.99,3.996l3.178,2.516c0.941,0.766,1.959,1.693,3.047,2.781
					c1.088,1.089,2.031,2.164,2.826,3.223c0.793,1.061,1.404,2.032,1.83,2.913c0.426,0.885,0.744,1.775,0.949,2.673
					c0.207,0.898,0.311,1.861,0.311,2.891c0,2.65-0.633,5.174-1.898,7.572c-1.266,2.4-3.061,4.371-5.387,5.916
					c-2.326,1.547-4.879,2.627-7.66,3.246c-2.781,0.617-5.717,0.926-8.807,0.926C154.115,83.037,148.096,82.346,140.826,80.963z"/>
				<path fill="#575756" d="M192.1,81.889l-1.502-8.123c-0.354-1.912-0.898-4.591-1.637-8.033l-7.201-32.981l-2.605-11.125
					c3.709,0.06,6.715,0.087,9.014,0.087c2.592,0,5.596-0.027,9.014-0.087c0.795,4.797,1.428,8.315,1.9,10.552l3.711,17.791
					c0.766,3.828,1.619,8.493,2.563,13.998l1.453-6.182l5.244-20.399l3.611-15.76c4.035,0.06,7.447,0.087,10.244,0.087
					c3.031,0,6.43-0.027,10.197-0.087l2.793,18.586l3.854,23.666l1.721-6.491c0.324-1.117,0.66-2.252,1.014-3.399
					s1.09-3.428,2.207-6.843l5.383-16.955l2.516-8.563c3.557,0.028,6.498,0.043,8.822,0.043c2.617,0,5.545-0.015,8.779-0.043
					l-17.119,51.302l-2.734,8.961c-4.416-0.057-8.271-0.088-11.568-0.088c-3.475,0-7.316,0.031-11.525,0.088l-1.014-6.047
					l-3.879-21.059c-0.205-1.267-0.389-2.568-0.551-3.908c-0.16-1.34-0.389-3.421-0.682-6.247l-1.547,6.844
					c-0.383,1.529-0.781,3.074-1.193,4.635l-7.113,25.782c-4.445-0.057-8.139-0.088-11.084-0.088
					C200.064,81.801,196.369,81.832,192.1,81.889z"/>
				<path fill="#575756" d="M267.414,81.889c0.65-6.711,1.096-12.08,1.332-16.114c0.355-6.004,0.711-13.773,1.066-23.311
					c0.266-7.299,0.4-12.522,0.4-15.674v-5.164c3.443,0.087,6.414,0.132,8.916,0.132c2.412,0,5.574-0.066,9.49-0.199
					c3.912-0.133,7.592-0.199,11.033-0.199c3.943,0,7.4,0.237,10.373,0.707c2.971,0.471,5.746,1.443,8.318,2.913
					c2.574,1.474,4.73,3.4,6.469,5.784c1.734,2.386,3.059,5.174,3.971,8.368c0.912,3.192,1.369,6.482,1.369,9.867
					c0,3.324-0.354,6.527-1.061,9.602c-0.705,3.077-1.693,5.85-2.959,8.322c-1.266,2.472-2.744,4.599-4.436,6.38
					c-1.693,1.779-3.627,3.305-5.807,4.568c-1.619,0.943-3.254,1.678-4.9,2.209c-1.648,0.529-3.9,0.955-6.756,1.279
					c-3.178,0.354-6.785,0.529-10.816,0.529l-17.836-0.131C273.904,81.758,271.182,81.801,267.414,81.889z M286.502,68.601
					c1.617,0.146,3.309,0.223,5.074,0.223c3,0,5.676-0.267,8.031-0.796c2.352-0.529,4.418-1.664,6.197-3.4
					c1.781-1.735,3.098-3.965,3.949-6.688c0.854-2.723,1.281-5.511,1.281-8.368c0-3.502-0.633-6.451-1.898-8.852
					c-1.268-2.398-2.951-4.069-5.057-5.011c-2.104-0.94-4.967-1.414-8.586-1.414c-2.119,0-4.621,0.089-7.506,0.267L286.502,68.601z"
					/>
			</g>
		</g>
	</g>
</g>
</svg>
